<svg width="201" height="171" viewBox="0 0 201 171"  xmlns="http://www.w3.org/2000/svg">
<path d="M189.938 171H134.598C135.1 150.42 135.351 129.463 135.351 108.13C135.351 86.7974 134.305 62.5781 132.213 35.4727C135.058 29.5329 139.032 20.4977 144.135 8.36719C144.72 7.02865 146.226 5.35547 148.652 3.34766C151.078 1.25618 153.212 0.210449 155.052 0.210449H193.452C192.866 11.2534 192.573 23.5094 192.573 36.9785C192.573 79.1426 195.376 121.056 200.981 162.718C200.981 163.805 199.642 165.479 196.965 167.737C194.288 169.912 191.946 171 189.938 171ZM103.853 164.475C103.267 165.729 101.971 167.152 99.9629 168.741C97.9551 170.247 96.3656 171 95.1943 171H75.2417C71.728 150.169 67.1686 128.25 61.5635 105.244C55.9583 82.238 50.395 63.2892 44.8735 48.3979C45.2082 46.4738 46.2957 40.6177 48.1362 30.8296C50.0604 20.9578 51.3989 13.4704 52.1519 8.36719C52.4028 7.19596 53.825 5.56462 56.4185 3.47314C59.0119 1.29801 61.2288 0.210449 63.0693 0.210449H99.5864C105.359 33.674 110.127 56.3037 113.892 68.0996C117.74 79.8118 121.254 89.1816 124.433 96.209C116.402 120.219 109.542 142.974 103.853 164.475ZM42.1128 80.272C42.5311 101.187 43.284 117.166 44.3716 128.208C45.5428 139.251 48.0107 150.755 51.7754 162.718C51.7754 163.805 50.395 165.479 47.6343 167.737C44.9572 169.912 42.6147 171 40.6069 171H0.576172C8.8584 151.257 15.342 135.278 20.0269 123.063C24.7118 110.766 28.4346 99.2207 31.1953 88.4287C31.1953 87.3411 32.5339 85.7098 35.2109 83.5347C37.888 81.3595 40.1886 80.272 42.1128 80.272Z" />
</svg>
